<svg xmlns="http://www.w3.org/2000/svg" viewBox="0 0 100 100">
<path data-role="skyL" data-color="8" fill="#4eb0ea" d="M0.00 0.00L22.00 0.00L50.00 0.00L47.40 13.00L50.00 26.00L24.00 34.21L22.00 36.10L22.00 32.46L18.40 29.30L14.00 27.93L9.60 30.10L4.00 35.64L0.00 36.00L0.00 18.00Z"/>
<path data-role="skyR" data-color="8" fill="#4eb0ea" d="M50.00 0.00L78.00 0.00L100.00 0.00L100.00 18.00L100.00 36.00L96.00 35.82L90.40 30.75L86.00 28.86L81.60 30.35L78.00 33.43L78.00 36.95L76.00 35.14L76.00 27.86L50.00 26.00L47.40 13.00Z"/>
<path data-role="waterL" data-color="6" fill="#2aa8a8" d="M0.00 36.00L4.00 35.64L9.60 40.31L14.00 41.73L18.40 39.51L22.00 36.10L19.20 58.05L22.00 80.00L0.00 78.00L0.00 57.00Z"/>
<path data-role="waterR" data-color="6" fill="#2aa8a8" d="M78.00 36.95L81.60 40.20L86.00 42.16L90.40 40.60L96.00 35.82L100.00 36.00L100.00 56.00L100.00 78.00L78.00 79.00L80.80 57.97Z"/>
<path data-role="sandL" data-color="3" fill="#f2d04a" d="M0.00 78.00L22.00 80.00L24.60 90.00L22.00 100.00L18.50 100.00L14.62 85.34L10.75 83.50L6.88 85.34L3.00 100.00L0.00 100.00L0.00 90.00Z"/>
<path data-role="sandC" data-color="3" fill="#f2d04a" d="M22.00 80.00L34.00 78.29L41.00 87.51L48.00 87.79L55.00 86.76L62.00 77.29L78.00 79.00L75.40 89.50L78.00 100.00L50.00 100.00L22.00 100.00L24.60 90.00Z"/>
<path data-role="sandR" data-color="3" fill="#f2d04a" d="M78.00 79.00L100.00 78.00L100.00 90.00L100.00 100.00L78.00 100.00L75.40 89.50Z"/>
<path data-role="waveL" data-color="6" fill="#2aa8a8" d="M4.00 35.64L9.60 30.10L14.00 27.93L18.40 29.30L24.00 34.21L18.40 39.51L14.00 41.73L9.60 40.31Z"/>
<path data-role="waveR" data-color="6" fill="#2aa8a8" d="M76.00 35.14L81.60 30.35L86.00 28.86L90.40 30.75L96.00 35.82L90.40 40.60L86.00 42.16L81.60 40.20Z"/>
<path data-role="foam" data-color="1" fill="#f7c09a" d="M34.00 78.29L41.00 77.29L48.00 76.29L55.00 76.54L62.00 77.29L55.00 86.76L48.00 87.79L41.00 87.51Z"/>
<path data-role="coral" data-color="7" fill="#e24b3c" d="M3.00 100.00L6.88 100.00L10.75 100.00L14.62 100.00L18.50 100.00L14.62 85.34L10.75 83.50L6.88 85.34Z"/>
<path data-role="rib1" data-color="1" fill="#f7c09a" d="M22.00 36.10L24.00 34.21L31.40 31.88L33.70 55.27L32.50 67.50L26.45 69.50L20.41 67.50L19.20 58.05Z"/>
<path data-role="rib2" data-color="2" fill="#f4a03c" d="M31.40 31.88L40.60 28.97L42.90 53.16L41.54 67.50L37.02 65.50L32.50 67.50L33.70 55.27Z"/>
<path data-role="rib3" data-color="4" fill="#2f7a52" d="M40.60 28.97L50.00 26.00L47.70 51.00L49.22 67.50L45.38 69.50L41.54 67.50L42.90 53.16Z"/>
<path data-role="rib4" data-color="5" fill="#ffe14a" d="M50.00 26.00L59.40 26.67L57.10 51.84L58.53 67.50L53.87 65.50L49.22 67.50L47.70 51.00Z"/>
<path data-role="rib5" data-color="1" fill="#f7c09a" d="M59.40 26.67L68.60 27.33L66.30 52.66L67.65 67.50L63.09 69.50L58.53 67.50L57.10 51.84Z"/>
<path data-role="rib6" data-color="2" fill="#f4a03c" d="M68.60 27.33L76.00 27.86L76.00 35.14L78.00 36.95L80.80 57.97L79.53 67.50L73.59 65.50L67.65 67.50L66.30 52.66Z"/>
<path data-role="hinge" data-color="1" fill="#f7c09a" d="M20.41 67.50L26.45 69.50L32.50 67.50L37.02 65.50L41.54 67.50L45.38 69.50L49.22 67.50L53.87 65.50L58.53 67.50L63.09 69.50L67.65 67.50L73.59 65.50L79.53 67.50L78.00 79.00L100.00 78.00L78.00 79.00L50.00 76.00L22.00 80.00L0.00 78.00L22.00 80.00Z"/>
</svg>
